<?xml version="1.0" encoding="UTF-8" standalone="no"?>
<!-- Created with Inkscape (http://www.inkscape.org/) -->

<svg
   xmlns:dc="http://purl.org/dc/elements/1.1/"
   xmlns:cc="http://creativecommons.org/ns#"
   xmlns:rdf="http://www.w3.org/1999/02/22-rdf-syntax-ns#"
   xmlns:svg="http://www.w3.org/2000/svg"
   xmlns="http://www.w3.org/2000/svg"
   xmlns:sodipodi="http://sodipodi.sourceforge.net/DTD/sodipodi-0.dtd"
   xmlns:inkscape="http://www.inkscape.org/namespaces/inkscape"
   width="48"
   height="24"
   id="svg2"
   version="1.1"
   inkscape:version="0.48.3.1 r9886"
   sodipodi:docname="reminder_on.svg"
   inkscape:export-filename="/home/piotr/NetBeansProjects/MyAgenda/gfx/reminder_on.png"
   inkscape:export-xdpi="75"
   inkscape:export-ydpi="75">
  <defs
     id="defs4">
    <filter
       id="filter3004"
       inkscape:label="Darken edges"
       inkscape:menu="Shadows and Glows"
       inkscape:menu-tooltip="Darken the edges with an inner blur"
       color-interpolation-filters="sRGB">
      <feGaussianBlur
         id="feGaussianBlur3006"
         result="result6"
         stdDeviation="1" />
      <feComposite
         id="feComposite3008"
         in2="result6"
         operator="atop"
         in="SourceGraphic"
         result="result8" />
      <feComposite
         id="feComposite3010"
         in2="SourceAlpha"
         in="result8"
         operator="atop"
         result="result9" />
    </filter>
    <filter
       id="filter3770"
       inkscape:label="filter2"
       color-interpolation-filters="sRGB" />
    <filter
       id="filter3772"
       inkscape:label="Darken edges"
       inkscape:menu="Shadows and Glows"
       inkscape:menu-tooltip="Darken the edges with an inner blur"
       color-interpolation-filters="sRGB">
      <feGaussianBlur
         id="feGaussianBlur3774"
         result="result6"
         stdDeviation="0.5" />
      <feComposite
         id="feComposite3776"
         in2="result6"
         operator="atop"
         in="SourceGraphic"
         result="result8" />
      <feComposite
         id="feComposite3778"
         in2="SourceAlpha"
         in="result8"
         operator="atop"
         result="result9" />
    </filter>
  </defs>
  <sodipodi:namedview
     id="base"
     pagecolor="#ffffff"
     bordercolor="#666666"
     borderopacity="1.0"
     inkscape:pageopacity="0.0"
     inkscape:pageshadow="2"
     inkscape:zoom="18.9375"
     inkscape:cx="13.663366"
     inkscape:cy="12"
     inkscape:document-units="px"
     inkscape:current-layer="g4273"
     showgrid="false"
     inkscape:window-width="1855"
     inkscape:window-height="1056"
     inkscape:window-x="65"
     inkscape:window-y="24"
     inkscape:window-maximized="1" />
  <metadata
     id="metadata7">
    <rdf:RDF>
      <cc:Work
         rdf:about="">
        <dc:format>image/svg+xml</dc:format>
        <dc:type
           rdf:resource="http://purl.org/dc/dcmitype/StillImage" />
        <dc:title />
      </cc:Work>
    </rdf:RDF>
  </metadata>
  <g
     style="display:inline"
     transform="translate(0,-1028.3622)"
     id="g3899"
     inkscape:groupmode="layer"
     inkscape:label="symbol on"
     sodipodi:insensitive="true" />
  <g
     inkscape:label="waves"
     id="g4273"
     inkscape:groupmode="layer"
     style="display:inline"
     sodipodi:insensitive="true">
    <g
       id="g3171"
       transform="translate(3.922,0)">
      <g
         style="fill:#ffffff;fill-opacity:1;display:inline"
         id="g3901"
         transform="translate(7.9999999,-1028.3622)">
        <path
           inkscape:connector-curvature="0"
           id="path3903"
           d="m 12,1028.8622 c -3.3137079,0 -5.9999999,2.6863 -5.9999999,6 l 0,3.9063 -3,5.0937 0,2.5 8.9999999,0 9,0 0,-2.5 -3,-5.125 0,-3.875 c 0,-3.3137 -2.686292,-6 -6,-6 z"
           style="fill:#ffffff;fill-opacity:1;stroke:none" />
        <path
           sodipodi:type="arc"
           style="fill:#ffffff;fill-opacity:1;stroke:none"
           id="path3905"
           sodipodi:cx="12.34053"
           sodipodi:cy="24.560085"
           sodipodi:rx="2.5203807"
           sodipodi:ry="1.8296096"
           d="m 14.860911,24.560085 a 2.5203807,1.8296096 0 1 1 -5.0407613,0 2.5203807,1.8296096 0 1 1 5.0407613,0 z"
           transform="matrix(0.99191363,0,0,1.3664117,-0.2407403,1015.803)" />
      </g>
      <path
         inkscape:connector-curvature="0"
         id="path4275"
         d="m 36.843676,1.0000565 -2.187464,2.21877 c 0.951002,1.889873 1.499904,4.0212082 1.499877,6.2812098 -3e-5,2.2600017 -0.548986,4.3913517 -1.500035,6.2812477 L 36.84346,18 C 38.297048,15.495009 39.155961,12.604673 39.156,9.4999985 39.156039,6.395325 38.297199,3.505009 36.843676,1.0000565 z m -4.468674,4.500042 -2.37496,2.3750208 c 0.106557,0.5207787 0.156231,1.07271 0.156225,1.6249928 C 30.15626,10.052396 30.106576,10.604328 30,11.125109 l 2.3749,2.374962 c 0.485647,-1.241387 0.78126,-2.586545 0.781276,-3.9999972 1.9e-5,-1.4134513 -0.295559,-2.7586011 -0.781174,-3.9999753 z"
         style="fill:#ffffff;fill-opacity:1;stroke:none" />
      <path
         inkscape:connector-curvature="0"
         id="path4275-1"
         d="M 3.3122831,1.0000573 C 1.8587856,3.5050094 0.9999607,6.3953257 1,9.4999988 1.0000393,12.604672 1.8589374,15.495009 3.3124985,18 L 5.4998668,15.781284 C 4.5488339,13.891388 3.9998868,11.760038 3.9998583,9.5000376 3.9998295,7.2400359 4.5487226,5.1087 5.4997077,3.2188275 L 3.3122831,1.0000573 z M 7.7808788,5.5000986 C 7.2952715,6.7414733 6.9996984,8.086623 6.9997165,9.5000755 c 1.77e-5,1.4134505 0.2956249,2.7586085 0.7812636,3.9999955 l 2.3748579,-2.374962 c -0.106569,-0.52078 -0.1562562,-1.072713 -0.1562632,-1.6249956 -7e-6,-0.5522838 0.04966,-1.1042153 0.1562232,-1.6249928 L 7.7808788,5.5000986 z"
         style="fill:#ffffff;fill-opacity:1;stroke:none;display:inline" />
    </g>
  </g>
</svg>
